<svg width="256" height="256" viewBox="0 0 256 256" fill="none" xmlns="http://www.w3.org/2000/svg">
<g clip-path="url(#clip0_22_19)">
<rect width="256" height="256" fill="#100F1C"/>
<path d="M175.322 145.198V183.912C175.364 190.152 174.171 196.339 171.812 202.117C169.453 207.894 165.974 213.148 161.576 217.575C157.178 222.002 151.948 225.516 146.187 227.914C140.425 230.312 134.247 231.546 128.006 231.546C121.766 231.546 115.587 230.312 109.825 227.914C104.064 225.516 98.8338 222.002 94.4359 217.575C90.038 213.148 86.5594 207.894 84.2003 202.117C81.8411 196.339 80.6481 190.152 80.69 183.912V171.015C80.6594 169.302 80.9703 167.6 81.6046 166.008C82.2389 164.416 83.1839 162.967 84.3844 161.744C85.5849 160.521 87.0169 159.55 88.5968 158.886C90.1768 158.223 91.873 157.881 93.5865 157.88C95.3 157.879 96.9966 158.22 98.5771 158.882C100.158 159.544 101.591 160.514 102.792 161.735C103.994 162.957 104.94 164.405 105.576 165.997C106.212 167.588 106.524 169.29 106.495 171.003L106.502 183.918C106.527 189.606 108.805 195.052 112.836 199.064C116.868 203.077 122.324 205.329 128.012 205.329C133.7 205.328 139.156 203.074 143.186 199.06C147.217 195.046 149.493 189.6 149.517 183.912V145.198C149.518 141.012 148.297 136.917 146.006 133.415C143.714 129.913 140.45 127.156 136.614 125.481C135.239 124.885 133.925 124.374 132.66 123.912L128.517 122.409C123.042 120.341 119.41 118.169 119.404 110.79C119.404 100.181 125.676 96.6586 136.602 98.6661C147.475 100.678 157.3 106.434 164.373 114.933C171.445 123.433 175.319 134.14 175.322 145.198ZM175.322 72.0759L175.322 84.9725C175.265 88.3558 173.881 91.5812 171.469 93.9541C169.057 96.327 165.809 97.6575 162.426 97.6591C159.042 97.6607 155.793 96.3333 153.378 93.9626C150.964 91.592 149.577 88.3679 149.517 84.9847L149.511 72.0819C149.561 69.2265 149.042 66.3896 147.985 63.7368C146.927 61.0839 145.352 58.6683 143.35 56.6309C141.349 54.5934 138.962 52.9749 136.329 51.8698C133.695 50.7647 130.868 50.1951 128.012 50.1943C125.156 50.1935 122.329 50.7615 119.695 51.8651C117.061 52.9687 114.673 54.5859 112.671 56.6222C110.668 58.6585 109.091 61.0732 108.032 63.7255C106.973 66.3777 106.453 69.2143 106.502 72.0698L106.502 110.784C106.501 114.969 107.721 119.064 110.013 122.566C112.305 126.068 115.569 128.826 119.404 130.5C120.779 131.096 122.093 131.607 123.358 132.07L127.501 133.572C132.976 135.641 136.614 137.818 136.614 145.191C136.614 155.801 130.342 159.323 119.416 157.316C108.544 155.303 98.7185 149.548 91.6457 141.049C84.5729 132.549 80.699 121.842 80.696 110.784L80.696 72.0698C80.6542 65.8295 81.8472 59.6425 84.2063 53.8651C86.5655 48.0878 90.0441 42.8341 94.442 38.4067C98.8398 33.9793 104.07 30.4655 109.831 28.0677C115.593 25.6699 121.772 24.4355 128.012 24.4355C134.253 24.4355 140.432 25.6699 146.193 28.0677C151.954 30.4655 157.185 33.9793 161.582 38.4067C165.98 42.8341 169.459 48.0878 171.818 53.8651C174.177 59.6425 175.364 65.8355 175.322 72.0759Z" fill="#FBFBFA"/>
</g>
<defs>
<clipPath id="clip0_22_19">
<rect width="256" height="256" rx="24" fill="white"/>
</clipPath>
</defs>
</svg>
